<?xml version="1.0" encoding="UTF-8"?>
<svg xmlns="http://www.w3.org/2000/svg" xmlns:xlink="http://www.w3.org/1999/xlink" width="0" height="0">
<defs>
<symbol viewBox="0 0 24 24" fill="none" id="trash">
<path fill-rule="evenodd" clip-rule="evenodd" d="M6.28577 5.14283H17.7143V18.8571C17.7143 20.1195 16.691 21.1428 15.4286 21.1428H8.57148C7.30912 21.1428 6.28577 20.1195 6.28577 18.8571V5.14283ZM12.0001 2.85712C13.205 2.85712 14.1922 3.78955 14.2795 4.97225L14.2858 5.14283H9.71434C9.71434 3.88047 10.7377 2.85712 12.0001 2.85712Z" stroke="black" stroke-linecap="round" stroke-linejoin="round"></path>
<path d="M4 5.14282H20" stroke="black" stroke-linecap="round" stroke-linejoin="round"></path>
<path d="M9.71423 8.57141V17.7143" stroke="black" stroke-linecap="round" stroke-linejoin="round"></path>
<path d="M14.2858 8.57141V17.7143" stroke="black" stroke-linecap="round" stroke-linejoin="round"></path>
</symbol>
<symbol viewBox="0 0 24 24" fill="none" id="share1">
<circle cx="18.2857" cy="5.7143" r="2.78571" stroke="black"></circle>
<circle cx="5.7143" cy="12.5714" r="2.78571" stroke="black"></circle>
<circle cx="18.2857" cy="18.2857" r="2.78571" stroke="black"></circle>
<path d="M15.4286 6.85712L8.57141 10.8571" stroke="black" stroke-linecap="square" stroke-linejoin="round"></path>
<path d="M8.57141 14.2857L15.4286 17.1428" stroke="black" stroke-linecap="square" stroke-linejoin="round"></path>
</symbol>
<symbol viewBox="0 0 24 24" fill="none" id="plus">
<path d="M6.28577 12H17.7143" stroke="black" stroke-linecap="round" stroke-linejoin="round"></path>
<path d="M12 6.28571V17.7143" stroke="black" stroke-linecap="round" stroke-linejoin="round"></path>
</symbol>
<symbol viewBox="0 0 24 24" fill="none" id="pen">
<path fill-rule="evenodd" clip-rule="evenodd" d="M19.4286 4.57143C20.3753 5.5182 20.3753 7.05323 19.4286 8L8.57143 18.8571L4 20L5.14286 15.493L16.0044 4.5758C16.8992 3.67637 18.3258 3.62787 19.2779 4.43287L19.4286 4.57143Z" stroke="black" stroke-linecap="round" stroke-linejoin="round"></path>
<path d="M17.7142 7.42859L18.8571 8.57145" stroke="black" stroke-linecap="round" stroke-linejoin="round"></path>
</symbol>
<symbol viewBox="0 0 24 24" fill="none" id="minus">
<path d="M6.28564 12H17.7142" stroke="black" stroke-linecap="round" stroke-linejoin="round"></path>
</symbol>
<symbol viewBox="0 0 24 24" fill="none" id="cross_circle">
<g clip-path="url(#clip0_125_1834)">
<path       d="M12 23.9999C18.6274 23.9999 23.9999 18.6274 23.9999 12C23.9999 5.37257 18.6274 0 12 0C5.37257 0 0 5.37257 0 12C0 18.6274 5.37257 23.9999 12 23.9999Z"
      fill="context-fill"
      stroke-width="0"
    ></path>
<path       d="M7.50026 7.5L16.5002 16.5"
      stroke="white"
      stroke-linecap="round"
      stroke-linejoin="round"1
    ></path>
<path       d="M16.5002 7.5L7.50026 16.5"
      stroke="white"
      stroke-linecap="round"
      stroke-linejoin="round"
    ></path>
</g>
<defs>
<clipPath id="clip0_125_1834">
<rect width="24" height="24" fill="white" ></rect>
</clipPath>
</defs>
</symbol>
<symbol viewBox="0 0 24 24" fill="none" id="cross">
<path fill-rule="evenodd" clip-rule="evenodd" d="M17.7142 17.7143L6.28564 6.28571L17.7142 17.7143Z" stroke="var(--icon-stroke-color, black)" stroke-linecap="round" stroke-linejoin="round"></path>
<path d="M17.7142 6.28571L6.28564 17.7143" stroke="var(--icon-stroke-color, black)" stroke-linecap="round" stroke-linejoin="round"></path>
</symbol>
<symbol viewBox="0 0 24 24" fill="none" id="create">
<path d="M11.4286 5.14288H6.28571C5.02335 5.14288 4 6.16623 4 7.4286V17.7147C4 18.9771 5.02335 20.0004 6.28571 20.0004H17.7143C18.9767 20.0004 20 18.9771 20 17.7147V12.5715" stroke="black" stroke-linecap="round" stroke-linejoin="round"></path>
<path fill-rule="evenodd" clip-rule="evenodd" d="M20 3.96192C20.6342 4.61724 20.6256 5.66007 19.9808 6.30491L12 14.2857L8.57141 15.4286L9.71427 12L17.6999 3.94784C18.2869 3.35596 19.2195 3.31525 19.854 3.82839L20 3.96192Z" stroke="black" stroke-linecap="round" stroke-linejoin="round"></path>
<path d="M17.7142 6.28571L18.8034 7.42856" stroke="black" stroke-linecap="round" stroke-linejoin="round"></path>
</symbol>
<symbol viewBox="0 0 24 24" fill="none" id="check_circle_filled">
<g clip-path="url(#clip0_207_2591)">
<path d="M12 23.9999C18.6274 23.9999 23.9999 18.6274 23.9999 12C23.9999 5.37257 18.6274 0 12 0C5.37257 0 0 5.37257 0 12C0 18.6274 5.37257 23.9999 12 23.9999Z" fill="context-fill"></path>
<path d="M5.99988 13.1L9.39988 16.5L17.8999 8" stroke="white" stroke-linecap="round" stroke-linejoin="round"></path>
</g>
<defs>
<clipPath id="clip0_207_2591">
<rect width="24" height="24" fill="white"></rect>
</clipPath>
</defs>
</symbol>
<symbol viewBox="0 0 24 24" fill="none" id="check_circle">
<path     d="M12 21.1428C17.0495 21.1428 21.1429 17.0494 21.1429 12C21.1429 6.95051 17.0495 2.85712 12 2.85712C6.95057 2.85712 2.85718 6.95051 2.85718 12C2.85718 17.0494 6.95057 21.1428 12 21.1428Z"
    stroke="black"
    stroke-linecap="round"
    stroke-linejoin="round"
  ></path>
<path     d="M8.57141 13.1428L10.8571 15.4285L16.5714 9.71423"
    stroke="black"
    stroke-linecap="round"
    stroke-linejoin="round"
  ></path>
</symbol>
<symbol viewBox="0 0 20 20" fill="none" id="check">
  <path d="M5 10.9167L7.83333 13.75L14.9167 6.66669" stroke="var(--icon-stroke-color, black)" stroke-linecap="round" stroke-linejoin="round"></path>
</symbol>
<symbol viewBox="0 0 24 24" fill="none" id="calendar">
<path fill-rule="evenodd" clip-rule="evenodd" d="M5.25001 3.98541H18.7501C19.9927 3.98541 21.0001 4.99278 21.0001 6.23542V19.7355C21.0001 20.9781 19.9927 21.9855 18.7501 21.9855H5.25001C4.00736 21.9855 3 20.9781 3 19.7355V6.23542C3 4.99278 4.00736 3.98541 5.25001 3.98541Z" stroke="black" stroke-linecap="round" stroke-linejoin="round"></path>
<path d="M3 8.48541H21.0001" stroke="black" stroke-linecap="round" stroke-linejoin="round"></path>
<path d="M6 3.71429V3C6 2.44772 6.44772 2 7 2V2C7.55228 2 8 2.44772 8 3V5C8 5.55228 7.55229 6 7 6H6.8" stroke="black" stroke-linecap="round"></path>
<path d="M16 3.71429V3C16 2.44772 16.4477 2 17 2V2C17.5523 2 18 2.44772 18 3V5C18 5.55228 17.5523 6 17 6H16.8" stroke="black" stroke-linecap="round"></path>
<circle cx="6.58594" cy="16.4308" r="0.984379" fill="#context-fill"></circle>
<circle cx="6.58594" cy="12.0011" r="0.984379" fill="#context-fill"></circle>
<circle cx="11.0156" cy="12.0011" r="0.984379" fill="#context-fill"></circle>
</symbol>
<symbol viewBox="0 0 24 24" fill="none" id="arrow_up">
<path d="M7.42847 14.2857L11.9999 9.71429L16.5713 14.2857" stroke="black" stroke-linecap="round" stroke-linejoin="round"></path>
</symbol>
<symbol viewBox="0 0 24 24" fill="none" id="arrow_right">
<path d="M10.8572 16.5714L15.4286 12L10.8572 7.42859" stroke="black" stroke-linecap="round" stroke-linejoin="round"></path>
</symbol>
<symbol viewBox="0 0 24 24" fill="none" id="arrow_left">
<path d="M13.143 16.5714L8.57153 12L13.143 7.42859" stroke="black" stroke-linecap="round" stroke-linejoin="round"></path>
</symbol>
<symbol viewBox="0 0 24 24" fill="none" id="arrow_down">
<path d="M16.5713 9.71429L11.9999 14.2857L7.42847 9.71429" stroke="black" stroke-linecap="round" stroke-linejoin="round"></path>
</symbol>
</defs>
</svg>